HIERARCHY
ROOT Hips
{
	OFFSET 0.000000 0.000000 0.000000
	CHANNELS 6 Xposition Yposition Zposition Zrotation Yrotation Xrotation 
	JOINT LowerBack
	{
		OFFSET 0.000000 0.000000 0.000000
		CHANNELS 3 Zrotation Yrotation Xrotation
		JOINT Spine
		{
			OFFSET 0.028270 2.035590 -0.193380
			CHANNELS 3 Zrotation Yrotation Xrotation
			JOINT Spine1
			{
				OFFSET 0.056720 2.048850 -0.042750
				CHANNELS 3 Zrotation Yrotation Xrotation
				JOINT Neck
				{
					OFFSET 0.000000 0.000000 0.000000
					CHANNELS 3 Zrotation Yrotation Xrotation
					JOINT Neck1
					{
						OFFSET -0.054170 1.746240 0.172020
						CHANNELS 3 Zrotation Yrotation Xrotation
						JOINT Head
						{
							OFFSET 0.104070 1.761360 -0.123970
							CHANNELS 3 Zrotation Yrotation Xrotation
							End Site
							{
								OFFSET 0.000000 0.000000 0.000000
							}
						}
					}
				}
				JOINT LeftShoulder
				{
					OFFSET 0.000000 0.000000 0.000000
					CHANNELS 3 Zrotation Yrotation Xrotation
					JOINT LeftArm
					{
						OFFSET 3.362410 1.200890 -0.311210
						CHANNELS 3 Zrotation Yrotation Xrotation
						JOINT LeftForeArm
						{
							OFFSET 4.983000 -0.000000 -0.000000
							CHANNELS 3 Zrotation Yrotation Xrotation
							JOINT LeftHand
							{
								OFFSET 3.483560 -0.000000 -0.000000
								CHANNELS 3 Zrotation Yrotation Xrotation
								JOINT LeftFingerBase
								{
									OFFSET 0.000000 0.000000 0.000000
									CHANNELS 3 Zrotation Yrotation Xrotation
									JOINT LeftHandIndex1
									{
										OFFSET 0.715260 -0.000000 -0.000000
										CHANNELS 3 Zrotation Yrotation Xrotation
										End Site
										{
											OFFSET 0.000000 0.000000 0.000000
										}
									}
								}
								JOINT LThumb
								{
									OFFSET 0.000000 0.000000 0.000000
									CHANNELS 3 Zrotation Yrotation Xrotation
									End Site
									{
										OFFSET 0.000000 0.000000 0.000000
									}
								}
							}
						}
					}
				}
				JOINT RightShoulder
				{
					OFFSET 0.000000 0.000000 0.000000
					CHANNELS 3 Zrotation Yrotation Xrotation
					JOINT RightArm
					{
						OFFSET -3.136600 1.374050 -0.404650
						CHANNELS 3 Zrotation Yrotation Xrotation
						JOINT RightForeArm
						{
							OFFSET -5.241900 -0.000000 -0.000000
							CHANNELS 3 Zrotation Yrotation Xrotation
							JOINT RightHand
							{
								OFFSET -3.444170 -0.000000 -0.000000
								CHANNELS 3 Zrotation Yrotation Xrotation
								JOINT RightFingerBase
								{
									OFFSET 0.000000 0.000000 0.000000
									CHANNELS 3 Zrotation Yrotation Xrotation
									JOINT RightHandIndex1
									{
										OFFSET -0.622530 -0.000000 -0.000000
										CHANNELS 3 Zrotation Yrotation Xrotation
										End Site
										{
											OFFSET 0.000000 0.000000 0.000000
										}
									}
								}
								JOINT RThumb
								{
									OFFSET 0.000000 0.000000 0.000000
									CHANNELS 3 Zrotation Yrotation Xrotation
									End Site
									{
										OFFSET 0.000000 0.000000 0.000000
									}
								}
							}
						}
					}
				}
			}
		}
	}
}
}
MOTION
Frames: 7
Frame Time: 0.008333
21.641764 15.731162 1.982299 149.813745 -86.874935 -107.197656 -8.964097 1.569858 4.027400 -3.158409 1.796231 -2.016039 -5.564643 1.728725 0.298621 4.508098 6.177643 4.052270 -3.362606 -0.359089 2.542062 0.000000 0.000000 0.000000 -2.402675 0.426397 2.927964 -44.347029 9.148103 -1.511350 -3.988946 -2.490954 -0.011223 1.566227 4.662559 0.069136 -0.134737 -0.002104 -0.000000 0.000000 0.000000 0.000000 0.000000 0.000000 0.000000 11.249215 7.843185 -2.500098 80.995643 40.796348 28.679870 1.052329 59.128304 -0.007171 -0.751236 12.785058 -0.085161 -0.012321 -0.399524 -0.000000 0.000000 0.000000 0.000000 0.000000 0.000000 0.000000 
21.439113 15.622936 1.991843 147.965396 -86.863759 -105.633713 -9.089553 1.553480 4.542758 -3.210337 1.767729 -1.924959 -5.667028 1.701335 0.180661 4.600729 6.602767 4.143035 -3.477896 -0.365012 2.549120 0.000000 0.000000 0.000000 -2.799729 -0.035338 2.997555 -44.070369 9.114416 0.479311 -4.068629 -3.206118 -0.011536 0.805198 4.852224 0.039643 -0.133197 -0.003068 -0.000000 0.000000 0.000000 0.000000 0.000000 0.000000 0.000000 11.910416 8.194666 -2.391304 80.286617 40.635930 27.549444 0.998570 58.886894 -0.009951 -1.135289 12.956904 -0.131281 -0.012412 -0.403469 -0.000000 0.000000 0.000000 0.000000 0.000000 0.000000 0.000000 
21.237754 15.520612 2.000487 145.513704 -86.840815 -103.488046 -9.208794 1.548922 5.084269 -3.262882 1.748470 -1.827325 -5.775708 1.682942 0.066624 4.727524 7.043248 4.260621 -3.599402 -0.371290 2.561665 0.000000 0.000000 0.000000 -3.260664 -0.521406 3.061325 -43.724013 8.860879 2.386243 -4.144053 -3.807531 -0.011808 0.099954 4.998692 0.009951 -0.132167 -0.003031 -0.000000 0.000000 0.000000 0.000000 0.000000 0.000000 0.000000 12.626223 8.530164 -2.284371 79.550763 40.344038 26.232130 0.936554 58.549388 -0.013341 -1.630302 13.134689 -0.192104 -0.011646 -0.406975 -0.000000 0.000000 0.000000 0.000000 0.000000 0.000000 0.000000 
21.037048 15.425882 2.008577 142.597521 -86.801201 -100.891556 -9.319264 1.558118 5.640456 -3.314223 1.740670 -1.725292 -5.887116 1.675577 -0.040531 4.886698 7.495090 4.403111 -3.724388 -0.377734 2.579613 0.000000 0.000000 0.000000 -3.773914 -1.024068 3.118868 -43.337627 8.352673 4.085066 -4.212260 -4.251869 -0.011998 -0.514402 5.102370 -0.017239 -0.131640 -0.001592 -0.000000 0.000000 0.000000 0.000000 0.000000 0.000000 0.000000 13.382011 8.844178 -2.180961 78.793877 39.913461 24.734253 0.866237 58.105552 -0.017318 -2.230301 13.317766 -0.267229 -0.010150 -0.409792 -0.000000 0.000000 0.000000 0.000000 0.000000 0.000000 0.000000 
20.836553 15.340055 2.016600 139.389326 -86.740857 -98.008415 -9.417506 1.582177 6.197801 -3.362181 1.745985 -1.621042 -5.997087 1.680769 -0.136426 5.075685 7.951139 4.565248 -3.849976 -0.384119 2.602098 0.000000 0.000000 0.000000 -4.323438 -1.528234 3.169882 -42.949795 7.557220 5.468092 -4.269406 -4.510757 -0.012085 -0.990094 5.176834 -0.038926 -0.131445 0.001622 -0.000000 0.000000 0.000000 0.000000 0.000000 0.000000 0.000000 14.161986 9.129697 -2.082337 78.020339 39.346034 23.074247 0.788179 57.542560 -0.021822 -2.926803 13.504644 -0.356356 -0.008036 -0.411613 -0.000000 0.000000 0.000000 0.000000 0.000000 0.000000 0.000000 
20.635707 15.264041 2.025120 136.074215 -86.659057 -95.016133 -9.497637 1.620427 6.744535 -3.403750 1.764622 -1.513701 -6.100161 1.698987 -0.208454 5.288656 8.400404 4.730260 -3.973121 -0.390058 2.624930 0.000000 0.000000 0.000000 -4.889699 -1.951384 3.211884 -42.599072 6.353751 6.510900 -4.310151 -4.530546 -0.012022 -1.272932 5.230343 -0.052210 -0.131185 0.007063 -0.000000 0.000000 0.000000 0.000000 0.000000 0.000000 0.000000 14.944001 9.375845 -1.994943 77.241096 38.658032 21.281807 0.703280 56.844812 -0.026723 -3.705574 13.693265 -0.458085 -0.005456 -0.412006 -0.000000 0.000000 0.000000 0.000000 0.000000 0.000000 0.000000 
20.433783 15.198411 2.034602 132.812500 -86.558701 -92.069375 -9.551668 1.671815 7.260990 -3.436422 1.796524 -1.413195 -6.196411 1.729383 -0.272944 5.524018 8.848151 4.912697 -4.090287 -0.395641 2.653504 0.000000 0.000000 0.000000 -5.476331 -2.420456 3.248948 -42.314930 4.964292 7.042036 -4.330730 -4.439637 -0.011887 -1.304750 5.298880 -0.054291 -0.130303 0.014504 -0.000000 0.000000 0.000000 0.000000 0.000000 0.000000 0.000000 15.716223 9.595558 -1.905839 76.448114 37.833626 19.361684 0.613046 55.998284 -0.031876 -4.550587 13.875105 -0.570514 -0.002567 -0.410890 -0.000000 0.000000 0.000000 0.000000 0.000000 0.000000 0.000000 
